<?xml version="1.0" encoding="utf-8"?>
<!-- Generator: Adobe Illustrator 24.0.1, SVG Export Plug-In . SVG Version: 6.00 Build 0)  -->
<svg version="1.1" id="Capa_1" xmlns="http://www.w3.org/2000/svg" xmlns:xlink="http://www.w3.org/1999/xlink" x="0px" y="0px"
	 viewBox="0 0 500 500" style="enable-background:new 0 0 500 500;" xml:space="preserve">
<style type="text/css">
	.st0{display:none;}
	.st1{display:inline;fill:none;stroke:#808383;stroke-width:2;}
	.st2{fill:#010707;}
</style>
<g class="st0">
	<path vector-effect="non-scaling-stroke" class="st1" d="M261.5,70.2l1.1-14.1c0-0.4-0.2-0.6-0.6-0.6c-5.2,0.3-10.6,0.2-16.3-0.1
		c-0.2,0-0.3,0.1-0.3,0.3l0,0V56c0,0.1,0.1,0.3,0.3,0.3c5.8,0,5,3.6,5,7.6c-0.1,5.8-0.2,12.6-0.5,20.2c0,0.4,0.1,0.8,0.3,1.1
		l3.1,4.4c0.2,0.3,0.6,0.6,1,0.6l9,0.9c0.1,0,0.1,0,0.2-0.1v-0.3c0-0.3-0.1-0.5-0.4-0.5c-3.6-0.3-3.1-2.7-2.9-5.4
		c0.3-3.5,0.5-6.9,0.8-10.3c0.2-1.9,0.7-3,2.3-3.9c2.6-1.4,5.3-1.6,8.2-0.6c1.6,0.5,2.3,1.9,2.1,3.5c-0.7,5.4-1.4,10.3-2.1,14.7
		c-0.3,2-1.5,2.8-3.6,2.6c-0.2,0-0.4,0.1-0.4,0.3v0.3c0,0.1,0,0.1,0.1,0.1l0,0c5.8,0.5,11.5,1.4,17.1,2.7c0.2,0,0.4-0.1,0.5-0.3l0,0
		v-0.3c0-0.2,0-0.2-0.2-0.2c-2.6-0.3-3.7-1.7-3.2-4.1c0.8-4.1,1.6-8.3,2.3-12.5c0.6-3.4-0.7-5.8-3.9-7c-5.4-2.1-13.6-3.1-18.5,0.8
		C261.6,70.8,261.4,70.7,261.5,70.2"/>
	<path vector-effect="non-scaling-stroke" class="st1" d="M234.7,89.3c0.1,0.4,0.3,0.8,0.7,1c0.8,0.6,1.2,0.4,1.1-0.6l-0.6-10
		c0-0.3-0.3-0.5-0.6-0.5l0,0h-0.4c-0.6,0.1-1,0.5-1,1.1c0,3.8-1.8,6.7-5.4,8.7c-5.1,2.9-12.1,4-17.3,1.1c-9.6-5.3-12-23-0.4-27.9
		c6.9-2.8,20.3-3.1,22.4,6.4c0.1,0.5,0.4,0.8,0.9,0.7h0.3c0.5,0,0.7-0.3,0.7-0.7l-0.2-9.6c0-0.4-0.3-0.7-0.7-0.7h-0.1l-0.4,0.1
		c-0.4,0.1-0.8,0.5-0.8,0.9c-0.1,1.8-1.6,2.4-3.1,1.9c-8.1-3-17.1-1.9-25.3,1.2c-7.5,2.9-16,9.7-14.3,18.4
		c2.6,13.9,20.1,13.5,30.5,11.7c3.9-0.7,7.8-2.2,11.8-4.5c0.7-0.4,1.7-0.2,2.1,0.5C234.6,89,234.6,89.2,234.7,89.3"/>
	<path vector-effect="non-scaling-stroke" class="st1" d="M173.8,71.1c-0.7-1.8-4.4-2-8.3-0.5l0,0c-3.9,1.5-6.5,4.2-5.8,6l0,0
		c0.7,1.8,4.4,2,8.3,0.5l0,0C171.9,75.6,174.5,72.9,173.8,71.1L173.8,71.1"/>
	<path vector-effect="non-scaling-stroke" class="st1" d="M312.8,79.1c3.2-0.9,5.6,0,7.3,2.7c2.8,4.4-0.8,12.3-3.5,16.1
		c-1.1,1.5-2.6,2.6-4.4,3.1c-0.1,0-0.2,0.2-0.2,0.3c0,0.1,0.1,0.1,0.1,0.1c2.7,1.2,5.4,2.4,8.5,2.1c4.7-0.4,8-3.1,9.8-7.9
		c3.8-10.1-8.1-15.9-15.6-18.2c-6.8-2-16.4-2.4-19.1,6.1c-1.6,5-0.6,9.1,2.9,12.1c1.2,1,3.6,2,7.2,3.1c0.3,0.1,0.4,0,0.3-0.3
		c-1.2-2.3-1.4-5-0.7-8.2C306.4,86.4,308.4,80.3,312.8,79.1"/>
	<path vector-effect="non-scaling-stroke" class="st1" d="M167,87.7c1.9,4.3,3.6,8.8,5.7,13.1c1.1,2.3,0.3,4-2.4,5.1
		c-0.2,0.1-0.2,0.2-0.2,0.4l0,0l0.1,0.2c0.1,0.2,0.2,0.2,0.4,0.1c5.7-2.7,11.4-5,17.2-6.9c0.1,0,0.2-0.1,0.2-0.2s0-0.2-0.1-0.3
		c-0.1-0.1-0.2-0.1-0.4-0.1c-2,0.6-4,1.1-4.9-1.5c-2.3-6.2-4.5-12.3-6.7-18.2c-0.1-0.3-0.3-0.4-0.7-0.3l-14.4,6.3
		c-0.1,0.1-0.2,0.2-0.1,0.3l0.1,0.3c0.1,0.1,0.2,0.2,0.4,0.1l0,0C163.4,85,165.9,85.1,167,87.7"/>
	<path vector-effect="non-scaling-stroke" class="st1" d="M133.4,89.2c0.8,0.1,1.5,0.6,1.9,1.3c4.2,6.9,8.7,14.3,13.6,22.2
		c1.5,2.5,1,4.3-1.7,5.6c-0.1,0.1-0.2,0.2-0.1,0.3c0,0,0,0.1,0.1,0.1l0.3,0.3c0.1,0.1,0.2,0.1,0.3,0c5.2-3.6,10.6-6.6,16.2-9.2
		c0.2-0.1,0.2-0.2,0.2-0.4v-0.3c0-0.2-0.1-0.3-0.3-0.2c-2,0.8-4.2,1.7-5.5-0.8c-4.9-9.2-9.9-18.4-14.7-27.4
		c-0.1-0.1-0.2-0.2-0.3-0.1l0,0l-14.4,9c-0.1,0.1-0.1,0.1-0.1,0.2L129,90c0.1,0.2,0.3,0.2,0.5,0.1l0,0
		C130.8,89.4,132.1,89,133.4,89.2"/>
	<path vector-effect="non-scaling-stroke" class="st1" d="M363,92.2c1-1.7-1.2-4.8-4.9-6.9l0,0c-3.7-2.1-7.4-2.5-8.4-0.8l0,0
		c-1,1.7,1.2,4.8,4.9,6.9l0,0C358.2,93.5,362,93.9,363,92.2"/>
	<path vector-effect="non-scaling-stroke" class="st1" d="M260.9,118.7c-1.1-11.2-6.8-21.3-13.2-30.4c-0.1-0.1-0.2-0.1-0.3-0.1
		c0,0,0,0-0.1,0.1c-12.3,16.4-20.4,37.5-4.6,54.3c1.3,1.4,2.7,2.9,4,4.3c0.3,0.3,0.8,0.3,1.1,0.1C256.2,139.3,262,130.1,260.9,118.7
		"/>
	<path vector-effect="non-scaling-stroke" class="st1" d="M346.6,117.6c-0.3-0.6-0.3-1.2,0.1-1.7L357.4,99c0.2-0.3,0.2-0.6-0.2-0.8
		l-13.8-7.5c-0.2-0.1-0.3-0.1-0.4,0.2l-0.1,0.4c0,0.1,0,0.2,0.1,0.2c2.3,1,3.6,3,2.3,5.4c-2.8,5-5.2,9.4-7.4,13.2
		c-1.4,2.5-3.5,1-5.4,0.4c-0.1,0-0.2,0-0.2,0.2v0.4c0,0.1,0.1,0.2,0.2,0.3c5.6,2.7,11,5.9,16.2,9.7c0.1,0.1,0.1,0.1,0.2,0l0.2-0.2
		c0.1-0.2,0.1-0.4-0.1-0.5C347.9,119.4,347.2,118.6,346.6,117.6"/>
	<path vector-effect="non-scaling-stroke" class="st1" d="M286.8,108.2c21.5,6.1,39.8,15.7,56.3,30.4c5.8,5.1,12.7-2.8,8.2-7.1
		c-0.9-0.9-1.8-1.7-2.6-2.4c-17.2-15-36.9-25.3-59.1-31C282.1,96.2,279.1,106,286.8,108.2"/>
	<path vector-effect="non-scaling-stroke" class="st1" d="M182.8,117.7c7.4-3.6,15.6-6.7,24.6-9.3c2.6-0.8,4.7-2.1,4.8-5.1
		c0.1-3.6-3.5-6-6.8-5.1c-7.9,2.3-15.6,5-23,8.1c-15.3,6.4-29.5,15.9-42.6,28.6c-1.9,1.9-3.7,3.7-5.3,5.7c-4,4.8,3,12.2,7.7,7.1
		C154.2,135,167.7,125,182.8,117.7"/>
	<path vector-effect="non-scaling-stroke" class="st1" d="M116.5,125.2c5.3-4.6,10.7-8.9,16.3-12.9c0.3-0.2,0.3-0.4,0.1-0.7
		c-2.3-3.3-6-4.4-9.8-3c-7.4,2.6-16.9,11.4-17.1,19.7c0,4,1.9,7.2,6,9.5c6.8,3.8,16.1-2.3,20.7-7.4c3.4-3.8,5-7.6,4.8-11.4
		c0-0.3-0.2-0.5-0.5-0.4c-0.4,0.1-0.7,0.4-0.8,0.8c-1.9,8.1-13.1,16.2-19.7,6.6C116.2,125.7,116.2,125.4,116.5,125.2"/>
	<path vector-effect="non-scaling-stroke" class="st1" d="M388.5,125.3l-3.1-1.2c-1-0.4-2.1,0-2.7,0.8c-2.3,3.3,3.2,7.8,5.8,9
		c2.6,1.2,5-1,4.3-3.6c-2.6-10.3-23.2-26.8-31.6-13.1c-5.7,9.3,5.6,20.2,12.8,23.7c2.5,1.3,5.5,1.7,8.8,1.3c0.2,0,0.3-0.1,0.3-0.3
		c0-0.1,0-0.2,0-0.3c0-0.4-0.3-0.6-0.6-0.6c-5.7-0.7-9.9-3.6-12.7-8.8c-3-5.6,2.4-11.8,7.3-13.3c4.7-1.4,9.6,1.8,11.6,5.9
		C389.1,125.3,389,125.5,388.5,125.3"/>
	<path vector-effect="non-scaling-stroke" class="st1" d="M74,167.5c-9.8-9.7-1.6-23,8-28.6c3.4-1.9,6.7-1.9,10.1,0.1
		c0.4,0.3,0.8,0.2,1-0.3l0.2-0.4c0.2-0.4,0.2-0.8-0.2-1.1l-6.9-6.5c-0.2-0.2-0.5-0.2-0.8-0.1l-0.3,0.2c-0.6,0.4-0.7,0.8-0.2,1.4
		c1.2,1.6,1,2.9-0.8,3.8c-9.4,5.3-15.4,13.7-19.2,24c-2.2,6.1-3.1,15.3,1.3,20.4c3.2,3.8,7.8,4.9,13.6,3.5c0.5-0.1,0.8-0.6,0.7-1.1
		c-0.7-3.6-1-7.3-0.9-11.1c0-0.4-0.2-0.8-0.6-1C77.1,170,75.5,168.9,74,167.5"/>
	<path vector-effect="non-scaling-stroke" class="st1" d="M223.4,136.7c-4.3-1.9-10.3-3.8-17.8-5.7c-0.4-0.1-0.5,0-0.4,0.4
		c0.8,4.9,1.8,9.9,2.8,14.9c2.3,10.6,9.6,21.4,20.3,24.7c4.6,1.4,9.8,2.3,13.8,5c0.2,0.1,0.5,0.1,0.6-0.1c0,0,0-0.1,0.1-0.1
		c1.4-4.9,1.7-9.4,1.1-13.5C242.2,150.8,233.4,141.1,223.4,136.7"/>
	<path vector-effect="non-scaling-stroke" class="st1" d="M253.8,174.7c4.2-1.3,8.3-2.5,12.3-3.7c10.5-3.2,18.2-13,20.5-23.6
		c1.1-5.2,2.2-10.6,3.1-16.3c0-0.1-0.1-0.2-0.2-0.2h-0.1c-11.6,3.5-22.2,5.7-30.7,15.2c-7.5,8.4-9.7,18.1-6.6,29.2
		c0.1,0.4,0.4,0.5,0.8,0.3c0.2-0.1,0.3-0.3,0.4-0.5C253.3,174.9,253.5,174.7,253.8,174.7"/>
	<path vector-effect="non-scaling-stroke" class="st1" d="M403.3,154c0.3,0.2,0.5,0.4,0.7,0.7c4.3,5.9,7.9,11.4,10.9,16.5
		c1.4,2.4,2.8,2.4,4-0.1c0.2-0.4,0.4-0.8,0.5-1.1c1.3-2.6,1.5-5.2,0.5-7.9c-2.8-7.6-10.6-18.7-19.5-19.1c-3.2-0.1-5.9,1-7.9,3.3
		c-3.1,3.6-3.8,7.7-2,12.5c3,8.2,9,16.5,18.2,18.3c0.3,0.1,0.6-0.1,0.7-0.4v-0.1c0-0.4-0.2-0.7-0.6-0.9c-4.2-1.7-7.3-4.6-9.4-8.8
		c-2.6-5.3-1.7-9.5,2.9-12.9C402.6,153.8,403,153.8,403.3,154"/>
	<path vector-effect="non-scaling-stroke" class="st1" d="M100.5,145.9l3,5.1c0.1,0.2,0.3,0.3,0.5,0.4c1.2,0.3,2.3,0.6,3.4,0.8
		c2.8,0.5,3.1-0.1,0.8-1.9c-2.3-1.8-4.5-3.6-6.5-5.5c-0.2-0.2-0.5-0.2-0.8-0.1c-0.2,0.1-0.4,0.2-0.5,0.4
		C100.3,145.3,100.3,145.6,100.5,145.9"/>
	<path vector-effect="non-scaling-stroke" class="st1" d="M328.7,259.3c-3.7-2.6-4.9-5.8-3.7-9.7c0.3-1.1,1.6-2.7,3.9-5
		c22.3-22.2,44.9-44.6,67.6-67.5c0.3-0.3,0.3-0.5,0-0.8l-7.6-8c-0.2-0.2-0.6-0.2-0.8,0l0,0c-23.5,23-46.5,45.9-69.1,68.5
		c-4.6,4.6-11.2,3-13.9-2.8c-1.8-3.9,0.4-7.6,3.1-10.2c23.5-23.3,46.2-45.9,68-67.6c0.3-0.3,0.3-0.5,0-0.8l-8.2-8.9
		c-0.1-0.1-0.2-0.1-0.4,0l0,0L306,201.7c-0.2,0.2-0.3,0.4-0.3,0.7c0.1,21.9-9.1,43.5-28.5,54.7c-0.3,0.2-0.5,0.5-0.4,0.9
		c2.4,8.3-5.2,13.8-11.1,18.2c-0.2,0.2-0.3,0.5-0.1,0.8c0,0,0,0.1,0.1,0.1l14.2,13.8c0.2,0.2,0.5,0.2,0.7,0l0,0
		c2.8-3.5,6.5-7.4,11-7.8c6.4-0.5,12,1.5,18.1,2.7c14.4,2.8,26.4-1,36-11.1c21.5-22.9,44.9-47.7,70.2-74.4c0.2-0.2,0.2-0.4,0-0.6
		l-8.2-8.7c-0.2-0.3-0.5-0.3-0.8,0c-1.9,1.7-3.7,3.3-5.4,5c-20.5,20.3-41.1,40.8-61.8,61.5C336.8,260.6,332.6,261.9,328.7,259.3"/>
	<path vector-effect="non-scaling-stroke" class="st1" d="M158.3,274.7c11.2,4.6,22.6,6.5,34.1,5.6c8.8-0.7,15.9,3.4,21.4,10.1
		c0.3,0.4,0.6,0.4,0.9,0l17-16.8c0.3-0.3,0.3-0.5,0-0.8c-33.6-33.5-68.1-67.5-103.5-102.1c-6.1-5.9-13.5-11.7-21.7-14.6
		c-10.8-3.7-20.5-0.1-22.4,12.3c-0.5,3.6-0.6,7.2-0.1,10.7c1.4,9.9,4.2,19.4,8.4,28.3C106,236.3,129.1,262.7,158.3,274.7"/>
	<path vector-effect="non-scaling-stroke" class="st1" d="M230.1,208.8c3.7,1.1,8.9,2,11.9,4.3c0.4,0.3,0.6,0.2,0.8-0.3
		c2.9-10.1,1.3-19.1-4.7-26.9c-5.1-6.6-11.8-11.2-20.2-13.9c-4.1-1.3-8.2-2.7-12.3-4.1c-0.2-0.1-0.3,0-0.3,0.2
		c0.9,5,1.9,10.3,3,15.9C210.6,195.7,218.4,205.5,230.1,208.8"/>
	<path vector-effect="non-scaling-stroke" class="st1" d="M274.5,172.8c-7.4,2.4-14.1,7.7-18.4,13.9c-5.3,7.5-6.7,16.2-4.1,25.8
		c0.1,0.5,0.4,0.6,0.8,0.4c2.9-1.5,6.2-2.6,9.9-3.5c13.2-3,21.6-13.3,24.2-26.8c0.9-4.6,1.7-9.2,2.4-13.9c0.1-0.5-0.1-0.6-0.5-0.5
		C283.9,169.8,279.1,171.3,274.5,172.8"/>
	<path vector-effect="non-scaling-stroke" class="st1" d="M232.5,247.1c3,0.8,7.3,1.9,9.6,3.7c0.4,0.3,0.6,0.2,0.8-0.3
		c1.9-8.7,2-16.2-2.6-24.1c-7-11.9-18.9-16.1-31.9-19.6c-0.5-0.1-0.9-0.3-1.4-0.5l-1.1-0.5c-0.5-0.2-0.7-0.1-0.6,0.5
		c1.2,6.4,2.6,12.1,3.9,17.1C212.2,234.9,220.9,244.2,232.5,247.1"/>
	<path vector-effect="non-scaling-stroke" class="st1" d="M270.5,243.7c6.7-3.6,13.3-11.8,15.3-20.3c1.2-5.2,2.4-10.9,3.6-17.1
		c0.1-0.4-0.1-0.5-0.5-0.4c-6.5,1.9-12,3.7-16.5,5.4c-7.6,2.8-14.9,9-18.7,16.4c-3.4,6.7-4,14.2-1.7,22.7c0.1,0.4,0.4,0.5,0.7,0.3
		c2.1-1.4,4.3-2.4,6.5-2.9C263.5,246.9,267.2,245.5,270.5,243.7"/>
	<path vector-effect="non-scaling-stroke" class="st1" d="M146.7,347.6c-16.5-21-26.6-46.1-28.6-72.9c-0.5-6.9-10.8-6.5-10.5,1
		c0.2,4.9,0.7,9.7,1.6,14.4c4.5,23.9,14.2,45.3,29.1,64.2c2.1,2.7,4.4,3.2,7.1,1.8C149,353.9,149.5,351.1,146.7,347.6"/>
	<path vector-effect="non-scaling-stroke" class="st1" d="M377.2,274.6c-2.4,26.8-12,52.4-29,73.2c-4.7,5.7,3.5,12.8,8.7,6.3
		c14.6-18.5,24.2-39.2,28.9-63c1-5,1.6-10.1,1.8-15.2C387.9,268.5,377.8,267.7,377.2,274.6"/>
	<path vector-effect="non-scaling-stroke" class="st1" d="M265.1,299.6c0.2-0.2,0.2-0.6,0-0.8l0,0l-17.6-17.6
		c-0.2-0.2-0.6-0.2-0.8,0l0,0l-17.5,17.5c-0.2,0.2-0.2,0.6,0,0.8l17.6,17.6c0.2,0.2,0.6,0.2,0.8,0l0,0L265.1,299.6"/>
	<path vector-effect="non-scaling-stroke" class="st1" d="M171.5,298.8c-0.2-0.2-0.6-0.2-0.8,0l0,0l-8.8,9c-0.2,0.2-0.6,0.2-0.8,0
		l0,0l-8.9-9c-0.2-0.2-0.5-0.2-0.8,0l-5.7,5.7c-0.2,0.2-0.2,0.6,0,0.8l0,0l8.7,8.5c0.2,0.2,0.2,0.6,0,0.8l0,0l-8.1,7.8
		c-0.2,0.2-0.2,0.5,0,0.8l5.7,5.9c0.2,0.2,0.5,0.2,0.8,0l0,0l8.3-8.4c0.2-0.2,0.5-0.2,0.8,0l8.6,8.7c0.2,0.2,0.5,0.2,0.8,0l5.9-5.8
		c0.2-0.2,0.2-0.6,0-0.8l0,0l-8.4-8.2c-0.2-0.2-0.2-0.5,0-0.8l0,0l8.7-8.4c0.2-0.2,0.2-0.5,0-0.8l0,0L171.5,298.8"/>
	<path vector-effect="non-scaling-stroke" class="st1" d="M332.9,320.8c0.2-0.2,0.6-0.2,0.8,0l8.6,8.5c0.2,0.2,0.6,0.2,0.8,0
		l5.7-5.8c0.2-0.2,0.2-0.6,0-0.8l0,0l-8.4-8.1c-0.2-0.2-0.2-0.6,0-0.8l0,0l8.7-8.4c0.2-0.2,0.2-0.6,0-0.8l0,0l-5.6-5.7
		c-0.2-0.2-0.6-0.2-0.8,0l0,0l-8.9,9c-0.2,0.2-0.6,0.2-0.8,0l0,0l-8.8-8.8c-0.2-0.2-0.6-0.2-0.8,0l0,0l-5.6,5.6
		c-0.2,0.2-0.2,0.6,0,0.8l0,0l8.5,8.4c0.2,0.2,0.2,0.6,0,0.8l0,0l-8.2,7.9c-0.2,0.2-0.2,0.6,0,0.8l5.6,5.7c0.2,0.2,0.6,0.2,0.8,0
		l0,0L332.9,320.8"/>
	<path vector-effect="non-scaling-stroke" class="st1" d="M139.1,387.4c-1.8,7.2,0.3,12.9,6.5,17c2.1,1.4,4.6,2.1,7.3,2
		c6.7-0.2,9.8-4,15.4-9.6c22.8-22.7,45.6-45.3,68.3-67.9c0.1-0.1,0.1-0.2,0-0.2l-19.1-18.6c-0.2-0.2-0.5-0.2-0.7,0
		c-24.8,24-49.6,47.9-74.4,71.8C140.8,383.4,139.7,385.3,139.1,387.4"/>
	<path vector-effect="non-scaling-stroke" class="st1" d="M329.5,400c5.5,5.5,11.3,8.4,18.8,4.7c8.2-4.1,11-14.7,5.1-22.1
		c-0.2-0.3-1.8-1.8-4.8-4.7c-23.7-22.8-47.4-45.4-71.2-68c-0.2-0.2-0.4-0.2-0.6,0l-18.4,18.3c-0.3,0.3-0.3,0.6,0,0.9
		C282.1,352.7,305.8,376.4,329.5,400"/>
	<path vector-effect="non-scaling-stroke" class="st1" d="M241.4,386.4c0,9,12.1,8.4,12.1,0.2c0-13.4,0-26.4,0-39.1
		c0-0.5-0.2-0.9-0.5-1.3l-5.1-5.2c-0.3-0.3-0.7-0.3-1,0l-5.1,5.2c-0.3,0.3-0.5,0.7-0.5,1.2C241.4,360.7,241.4,373.7,241.4,386.4"/>
	<path vector-effect="non-scaling-stroke" class="st1" d="M195.7,406.6c22.2,9.3,45.3,12.5,69.1,9.3c11-1.5,22.9-4.7,35.7-9.7
		c2-0.8,3.3-1.6,4-2.5c3.5-4.3-1.7-10.1-6.7-8c-2.6,1.1-5.3,2.2-8.1,3.2c-26.3,9.6-52.6,10.2-78.8,1.8c-4.8-1.5-9.5-3.3-14.3-5.3
		c-1.3-0.6-2.7-0.4-4,0.4c-2.4,1.4-3.3,3.5-2.6,6.2C190.5,405,193.4,405.6,195.7,406.6"/>
	<path vector-effect="non-scaling-stroke" class="st1" d="M115.8,124.6l8.8-7.4c0.2-0.2,0.2-0.4,0.1-0.6l0,0l-0.5-0.6
		c-2.5-3-6.6-3.8-9.1-1.7l0,0l-0.3,0.3c-2.5,2.1-2.5,6.3,0.1,9.3l0.5,0.6C115.4,124.8,115.6,124.8,115.8,124.6
		C115.8,124.7,115.8,124.7,115.8,124.6"/>
	<path vector-effect="non-scaling-stroke" class="st1" d="M404.1,153.5l7,10c0.2,0.2,0.5,0.3,0.7,0.1l0,0l0.5-0.4
		c3.3-2.3,4.3-6.5,2.3-9.3l0,0l-0.3-0.4c-2-2.9-6.3-3.3-9.5-1l0,0l-0.5,0.4C404,153,404,153.3,404.1,153.5L404.1,153.5"/>
</g>
<path class="st2" d="M255.8,81.6c6.4,9.1,12.1,19.3,13.2,30.4c1.2,11.4-4.7,20.6-13.1,28.1c-0.3,0.3-0.8,0.3-1.1-0.1
	c-1.3-1.4-2.7-2.8-4-4.3c-15.7-16.8-7.7-37.9,4.6-54.3C255.4,81.5,255.6,81.4,255.8,81.6C255.7,81.5,255.7,81.6,255.8,81.6z"/>
<path class="st2" d="M351.2,132c-16.5-14.7-34.8-24.3-56.3-30.4c-7.7-2.2-4.7-12,2.7-10.1c22.2,5.7,41.9,16,59.1,31
	c0.9,0.8,1.8,1.6,2.6,2.4C363.9,129.3,357,137.1,351.2,132z"/>
<path class="st2" d="M190.9,111.1c-15.1,7.3-28.6,17.3-40.7,30.1c-4.8,5.1-11.8-2.4-7.7-7.1c1.6-1.9,3.4-3.8,5.3-5.7
	c13.2-12.7,27.4-22.2,42.6-28.6c7.5-3.1,15.1-5.8,23-8.1c3.3-0.9,6.9,1.5,6.8,5.1c0,3-2.1,4.4-4.8,5.1
	C206.5,104.4,198.3,107.5,190.9,111.1z"/>
<path class="st2" d="M231.5,130.1c10,4.4,18.9,14.2,20.5,25.5c0.6,4.2,0.2,8.7-1.1,13.5c-0.1,0.2-0.3,0.4-0.6,0.3c0,0-0.1,0-0.1-0.1
	c-4-2.7-9.2-3.6-13.8-5c-10.6-3.2-18-14.1-20.3-24.7c-1.1-5-2-10-2.8-14.9c-0.1-0.4,0.1-0.5,0.4-0.4
	C221.2,126.3,227.1,128.2,231.5,130.1z"/>
<path class="st2" d="M261.3,168.5c-0.1,0.2-0.2,0.4-0.4,0.5c-0.4,0.2-0.6,0.1-0.8-0.3c-3.1-11.1-0.9-20.9,6.6-29.2
	c8.5-9.5,19.1-11.7,30.7-15.2c0.1,0,0.2,0,0.3,0.1v0.1c-0.9,5.7-2,11.1-3.1,16.3c-2.3,10.5-10,20.3-20.5,23.6
	c-3.9,1.2-8,2.4-12.3,3.7C261.6,168.1,261.4,168.3,261.3,168.5z"/>
<path class="st2" d="M336.8,252.6c3.9,2.7,8.1,1.4,11.2-1.8c20.7-20.7,41.3-41.2,61.8-61.5c1.7-1.7,3.5-3.4,5.4-5
	c0.3-0.2,0.5-0.2,0.8,0l8.2,8.7c0.2,0.2,0.2,0.4,0,0.6c-25.3,26.7-48.7,51.5-70.2,74.4c-9.5,10.2-21.5,13.9-36,11.1
	c-6.1-1.2-11.7-3.2-18.1-2.7c-4.6,0.4-8.3,4.3-11,7.8c-0.2,0.2-0.5,0.3-0.7,0.1l0,0L274,270.4c-0.2-0.2-0.2-0.6,0-0.8
	c0,0,0,0,0.1-0.1c5.9-4.4,13.5-9.9,11.1-18.2c-0.1-0.4,0-0.7,0.4-0.9c19.4-11.3,28.5-32.8,28.5-54.7c0-0.3,0.1-0.5,0.3-0.7
	l61.6-55.2c0.1-0.1,0.3-0.1,0.4,0l0,0l8.2,8.9c0.3,0.3,0.3,0.6,0,0.8c-21.8,21.7-44.5,44.3-68,67.6c-2.7,2.7-4.9,6.4-3.1,10.2
	c2.7,5.8,9.4,7.3,13.9,2.8c22.5-22.6,45.5-45.4,69.1-68.5c0.2-0.2,0.6-0.2,0.8,0l0,0l7.6,8c0.2,0.3,0.2,0.5,0,0.8
	c-22.8,22.8-45.3,45.3-67.6,67.5c-2.2,2.2-3.5,3.9-3.9,5C331.9,246.8,333.1,250.1,336.8,252.6z"/>
<path class="st2" d="M166.4,268.1c-29.2-12-52.3-38.4-65.8-67.1c-4.2-8.9-7-18.4-8.4-28.3c-0.5-3.5-0.5-7.1,0.1-10.7
	c1.8-12.4,11.6-16,22.4-12.3c8.2,2.8,15.6,8.6,21.7,14.6c35.4,34.6,69.9,68.6,103.5,102.1c0.3,0.3,0.3,0.5,0,0.8l-17,16.8
	c-0.3,0.3-0.7,0.3-0.9,0c-5.5-6.7-12.6-10.8-21.4-10.1C189,274.6,177.6,272.7,166.4,268.1z"/>
<path class="st2" d="M250.1,206.4c-3-2.3-8.2-3.2-11.9-4.3c-11.7-3.3-19.4-13.1-21.8-24.7c-1.1-5.6-2.1-10.9-3-15.9
	c0-0.2,0-0.3,0.3-0.2c4.1,1.4,8.2,2.7,12.3,4.1c8.4,2.7,15.2,7.3,20.2,13.9c6,7.8,7.5,16.7,4.7,26.9
	C250.7,206.6,250.5,206.7,250.1,206.4z"/>
<path class="st2" d="M264.2,180c4.3-6.1,11-11.4,18.4-13.9c4.6-1.5,9.4-3.1,14.2-4.6c0.4-0.1,0.6,0,0.5,0.5
	c-0.8,4.7-1.6,9.3-2.4,13.9c-2.5,13.5-11,23.8-24.2,26.8c-3.7,0.8-7,2-9.9,3.5c-0.4,0.2-0.7,0.1-0.8-0.4
	C257.5,196.2,258.9,187.6,264.2,180z"/>
<path class="st2" d="M250.3,244.2c-2.3-1.8-6.6-3-9.6-3.7c-11.7-2.9-20.3-12.2-23.4-23.6c-1.4-5-2.7-10.7-3.9-17.1
	c-0.1-0.6,0.1-0.7,0.6-0.5l1.1,0.5c0.4,0.2,0.9,0.4,1.4,0.5c13,3.5,24.9,7.6,31.9,19.6c4.6,7.9,4.6,15.4,2.6,24.1
	C250.9,244.4,250.7,244.5,250.3,244.2z"/>
<path class="st2" d="M294,216.8c-2,8.5-8.6,16.7-15.3,20.3c-3.3,1.7-7,3.1-11.2,4.1c-2.2,0.5-4.4,1.5-6.5,2.9
	c-0.4,0.2-0.6,0.2-0.7-0.3c-2.3-8.5-1.7-16.1,1.7-22.7c3.8-7.4,11.1-13.6,18.7-16.4c4.6-1.6,10.1-3.4,16.5-5.4
	c0.4-0.1,0.5,0,0.5,0.4C296.4,206,295.2,211.7,294,216.8z"/>
<path class="st2" d="M126.2,268.1c2,26.8,12.1,51.8,28.6,72.9c2.8,3.5,2.3,6.3-1.4,8.4c-2.6,1.5-5,0.9-7.1-1.8
	c-14.9-18.9-24.6-40.3-29.1-64.2c-0.9-4.7-1.4-9.5-1.6-14.4C115.4,261.6,125.7,261.2,126.2,268.1z"/>
<path class="st2" d="M356.3,341.1c17-20.7,26.7-46.4,29-73.2c0.6-6.9,10.7-6.1,10.4,1.2c-0.2,5.1-0.8,10.2-1.8,15.2
	c-4.6,23.9-14.3,44.6-28.9,63C359.8,353.9,351.6,346.8,356.3,341.1z"/>
<path class="st2" d="M255.5,274.4l17.6,17.6c0.2,0.2,0.2,0.6,0,0.8l-17.5,17.5c-0.2,0.2-0.6,0.2-0.8,0l-17.6-17.6
	c-0.2-0.2-0.2-0.6,0-0.8l17.5-17.5C254.9,274.2,255.3,274.2,255.5,274.4z"/>
<path class="st2" d="M179.6,292.2l5.7,5.8c0.2,0.2,0.2,0.6,0,0.8l0,0l-8.7,8.4c-0.2,0.2-0.2,0.5,0,0.8l0,0l8.4,8.2
	c0.2,0.2,0.2,0.6,0,0.8l0,0l-5.9,5.8c-0.2,0.2-0.5,0.2-0.8,0l-8.6-8.7c-0.2-0.2-0.5-0.2-0.8,0l-8.3,8.4c-0.2,0.2-0.6,0.2-0.8,0l0,0
	l-5.7-5.9c-0.2-0.2-0.2-0.6,0-0.8l8.1-7.8c0.2-0.2,0.2-0.6,0-0.8l0,0l-8.7-8.5c-0.2-0.2-0.2-0.6,0-0.8l0,0l5.7-5.7
	c0.2-0.2,0.5-0.2,0.8,0l8.9,9c0.2,0.2,0.6,0.2,0.8,0l0,0l8.8-9C179,292,179.4,292,179.6,292.2L179.6,292.2z"/>
<path class="st2" d="M341,314.1l-8.4,8.4c-0.2,0.2-0.6,0.2-0.8,0l0,0l-5.6-5.7c-0.2-0.2-0.2-0.6,0-0.8l8.2-7.9
	c0.2-0.2,0.2-0.6,0-0.8l0,0l-8.5-8.4c-0.2-0.2-0.2-0.6,0-0.8l0,0l5.6-5.6c0.2-0.2,0.6-0.2,0.8,0l0,0l8.8,8.8c0.2,0.2,0.6,0.2,0.8,0
	l0,0l8.9-9c0.2-0.2,0.6-0.2,0.8,0l0,0l5.6,5.7c0.2,0.2,0.2,0.6,0,0.8l0,0l-8.7,8.4c-0.2,0.2-0.2,0.6,0,0.8l0,0l8.4,8.1
	c0.2,0.2,0.2,0.6,0,0.8l0,0l-5.7,5.8c-0.2,0.2-0.6,0.2-0.8,0l-8.6-8.5C341.6,313.9,341.2,313.9,341,314.1z"/>
<path class="st2" d="M147.2,380.7c0.5-2.1,1.6-4,3.3-5.6c24.8-23.9,49.6-47.8,74.4-71.8c0.3-0.2,0.5-0.2,0.7,0l19.1,18.6
	c0.1,0.1,0.1,0.1,0,0.2c-22.8,22.6-45.5,45.3-68.3,67.9c-5.7,5.6-8.7,9.4-15.4,9.6c-2.8,0.1-5.2-0.6-7.3-2
	C147.6,393.6,145.4,388,147.2,380.7z"/>
<path class="st2" d="M356.4,398c-7.5,3.7-13.3,0.8-18.8-4.7c-23.7-23.6-47.4-47.2-71.1-70.9c-0.3-0.3-0.3-0.6,0-0.9l18.4-18.3
	c0.2-0.2,0.4-0.2,0.6,0c23.8,22.6,47.5,45.2,71.2,68c3,2.9,4.6,4.5,4.8,4.7C367.5,383.4,364.7,394,356.4,398z"/>
<path class="st2" d="M261.6,379.9c0,8.2-12.2,8.8-12.1-0.2c0.1-12.7,0-25.7,0-39c0-0.4,0.2-0.8,0.5-1.2l5.1-5.2c0.3-0.3,0.7-0.3,1,0
	l5.1,5.2c0.3,0.3,0.5,0.8,0.5,1.3C261.6,353.5,261.6,366.6,261.6,379.9z"/>
<path class="st2" d="M203.8,400c-2.3-1-5.2-1.6-5.8-4.5c-0.6-2.7,0.3-4.8,2.6-6.2c1.4-0.8,2.7-0.9,4-0.4c4.7,2,9.5,3.7,14.3,5.3
	c26.2,8.4,52.5,7.8,78.8-1.8c2.8-1,5.5-2.1,8.1-3.2c5-2.1,10.1,3.7,6.7,8c-0.7,0.9-2.1,1.7-4,2.5c-12.7,5-24.6,8.2-35.7,9.7
	C249,412.4,226,409.3,203.8,400z"/>
</svg>
